#!OML:ASF X:\für Bonn\!DataBase\2005_08_11_Bastian_Final\c3d\Bastian.ASF
:FULLY-SPECIFIED
:DEGREES
676
root -0.267415 1.11854 26.1186 -995.112 -1.95082 -900.621
lowerback 3.6096 -2.72173 -0.713644
upperback 7.93135 -4.16521 -0.398695
thorax 6.24169 -2.3655 -0.125178
lowerneck -29.3939 1.4085 10.1391
upperneck 13.1957 -1.41641 -2.76308
head 8.7397 -0.369446 -2.77176
rclavicle 4.45278e-014 -3.18055e-014
rhumerus -88.1405 67.8571 -140.469
rradius 29.7711
rwrist -18.3965
rhand -15.3834 -2.59841
rfingers 7.12502
rthumb 10.795 -32.301
lclavicle 4.45278e-014 -3.18055e-014
lhumerus -219.634 -139.578 269.141
lradius 15.4444
lwrist 25.3588
lhand -9.58018 -5.20293
lfingers 7.12502
lthumb 16.3879 24.1248
rfemur -5.6941 3.0708 21.9424
rtibia 31.9951
rfoot -9.4671 -24.0511
rtoes -10.5677
lfemur 0.818699 2.62469 -17.3621
ltibia 19.218
lfoot -6.39463 14.3503
ltoes 8.92723
677
root -0.267439 1.11849 26.1185 -995.112 -1.95082 -900.621
lowerback 3.61814 -2.72825 -0.732215
upperback 7.91014 -4.1729 -0.383045
thorax 6.21664 -2.37003 -0.0972605
lowerneck -29.507 1.44941 10.1495
upperneck 13.1797 -1.37637 -2.76669
head 8.75407 -0.35045 -2.76906
rclavicle 5.725e-014 -1.66979e-014
rhumerus -88.2478 67.8419 -140.534
rradius 29.7816
rwrist -18.3836
rhand -15.3817 -2.59539
rfingers 7.12502
rthumb 10.7966 -32.2979
lclavicle 5.725e-014 -1.66979e-014
lhumerus -219.585 -139.693 269.11
lradius 15.3477
lwrist 25.2552
lhand -9.5633 -5.25523
lfingers 7.12502
lthumb 16.4041 24.0711
rfemur -5.69551 3.07081 21.9423
rtibia 31.9975
rfoot -9.46816 -24.0508
rtoes -10.5711
lfemur 0.833274 2.50362 -17.3787
ltibia 19.2111
lfoot -6.4939 14.4347
ltoes 9.07821
678
root -0.267454 1.11849 26.1189 -995.09 -1.95136 -900.621
lowerback 3.58164 -2.73673 -0.740137
upperback 7.90381 -4.18244 -0.382453
thorax 6.23136 -2.37435 -0.0944622
lowerneck -29.6573 1.49379 10.1903
upperneck 13.1862 -1.34733 -2.77353
head 8.78108 -0.334332 -2.77441
rclavicle 3.81667e-014 -2.94201e-014
rhumerus -88.5224 67.8808 -140.817
rradius 29.805
rwrist -18.4393
rhand -15.4097 -2.61028
rfingers 7.12502
rthumb 10.7696 -32.3142
lclavicle 3.81667e-014 -2.94201e-014
lhumerus -219.522 -139.785 269.05
lradius 15.2728
lwrist 25.1736
lhand -9.54952 -5.25012
lfingers 7.12502
lthumb 16.4174 24.0751
rfemur -5.72497 3.06208 21.9385
rtibia 32.0054
rfoot -9.47951 -24.0393
rtoes -10.6381
lfemur 0.815896 2.50461 -17.3806
ltibia 19.195
lfoot -6.48888 14.4562
ltoes 9.0545
679
root -0.267475 1.11848 26.1188 -995.09 -1.95136 -900.621
lowerback 3.58684 -2.73794 -0.741159
upperback 7.88844 -4.18167 -0.391085
thorax 6.21127 -2.37274 -0.10166
lowerneck -29.7516 1.53447 10.23
upperneck 13.1624 -1.32488 -2.73139
head 8.7889 -0.315878 -2.7622
rclavicle 1.27222e-014 8.74653e-015
rhumerus -88.5184 67.8452 -140.835
rradius 29.7917
rwrist -18.4247
rhand -15.4092 -2.6091
rfingers 7.12502
rthumb 10.77 -32.313
lclavicle 1.27222e-014 8.74653e-015
lhumerus -219.434 -139.901 268.943
lradius 15.1571
lwrist 25.0236
lhand -9.52293 -5.31536
lfingers 7.12502
lthumb 16.443 24.0078
rfemur -5.72607 3.06209 21.9384
rtibia 32.0076
rfoot -9.48068 -24.039
rtoes -10.6381
lfemur 0.820857 2.46155 -17.383
ltibia 19.188
lfoot -6.52796 14.5068
ltoes 9.23786
680
root -0.267458 1.11844 26.119 -995.079 -1.97514 -900.619
lowerback 3.57434 -2.74589 -0.777072
upperback 7.87177 -4.18959 -0.392678
thorax 6.20302 -2.37745 -0.0835665
lowerneck -29.8452 1.57917 10.2628
upperneck 13.1461 -1.2847 -2.74488
head 8.79989 -0.296844 -2.76623
rclavicle -1.43125e-014 2.82274e-014
rhumerus -88.616 67.8379 -140.924
rradius 29.7957
rwrist -18.4235
rhand -15.4025 -2.60546
rfingers 7.12502
rthumb 10.7765 -32.309
lclavicle -1.43125e-014 2.82274e-014
lhumerus -219.374 -140.042 268.881
lradius 15.0743
lwrist 24.8904
lhand -9.51671 -5.35545
lfingers 7.12502
lthumb 16.449 23.9672
rfemur -5.74172 3.05518 21.9097
rtibia 32.0132
rfoot -9.47831 -24.031
rtoes -10.6417
lfemur 0.81951 2.46034 -17.4106
ltibia 19.1764
lfoot -6.5046 14.4976
ltoes 9.14312
681
root -0.267675 1.11831 26.1192 -995.067 -1.95375 -900.62
lowerback 3.56093 -2.75099 -0.757706
upperback 7.85885 -4.19552 -0.382537
thorax 6.19625 -2.37884 -0.0840822
lowerneck -29.9445 1.59995 10.2191
upperneck 13.1407 -1.26075 -2.68873
head 8.81556 -0.280606 -2.73623
rclavicle 8.11041e-014 -2.90226e-014
rhumerus -88.7112 67.8466 -141.012
rradius 29.8001
rwrist -18.4119
rhand -15.3799 -2.61534
rfingers 7.12502
rthumb 10.7983 -32.3178
lclavicle 8.11041e-014 -2.90226e-014
lhumerus -219.298 -140.171 268.8
lradius 15
lwrist 24.7653
lhand -9.4868 -5.37395
lfingers 7.12502
lthumb 16.4778 23.9463
rfemur -5.75756 3.03832 21.9286
rtibia 32.0167
rfoot -9.47102 -24.0174
rtoes -10.6523
lfemur 0.810787 2.4621 -17.388
ltibia 19.1663
lfoot -6.50138 14.5138
ltoes 9.07411
682
root -0.267661 1.11824 26.1193 -995.056 -1.97749 -900.617
lowerback 3.54666 -2.7596 -0.7938
upperback 7.84738 -4.20484 -0.385015
thorax 6.19458 -2.38452 -0.0672254
lowerneck -30.0301 1.61923 10.151
upperneck 13.1178 -1.23419 -2.59477
head 8.82355 -0.260141 -2.68818
rclavicle 2.54444e-014 -9.14409e-015
rhumerus -88.8136 67.851 -141.11
rradius 29.8062
rwrist -18.4179
rhand -15.3758 -2.58633
rfingers 7.12502
rthumb 10.8023 -32.2885
lclavicle 2.54444e-014 -9.14409e-015
lhumerus -219.197 -140.32 268.701
lradius 14.8905
lwrist 24.6373
lhand -9.45571 -5.44403
lfingers 7.12502
lthumb 16.5077 23.8737
rfemur -5.77027 3.0789 21.9029
rtibia 32.0224
rfoot -9.53876 -24.0492
rtoes -10.6049
lfemur 0.81278 2.41529 -17.4184
ltibia 19.1521
lfoot -6.56597 14.5359
ltoes 9.43257
683
root -0.267662 1.11798 26.1194 -995.057 -1.97691 -900.608
lowerback 3.5565 -2.76714 -0.804895
upperback 7.83171 -4.2142 -0.375079
thorax 6.17383 -2.38952 -0.0495833
lowerneck -30.0974 1.63962 10.089
upperneck 13.1078 -1.20035 -2.53759
head 8.83339 -0.24064 -2.6532
rclavicle -1.74931e-014 4.96962e-014
rhumerus -88.8885 67.8394 -141.164
rradius 29.8086
rwrist -18.4117
rhand -15.4039 -2.57829
rfingers 7.12502
rthumb 10.7751 -32.2819
lclavicle -1.74931e-014 4.96962e-014
lhumerus -219.156 -140.428 268.659
lradius 14.8137
lwrist 24.5133
lhand -9.43824 -5.50467
lfingers 7.12502
lthumb 16.5245 23.8117
rfemur -5.77556 3.00238 21.8899
rtibia 32.0242
rfoot -9.51106 -23.9828
rtoes -10.5651
lfemur 0.814272 2.40395 -17.4199
ltibia 19.1442
lfoot -6.53906 14.5516
ltoes 9.16391
